# xmcd CD database file
# Copyright (C) 1993-1998 Ti Kan
# 
# Track frame offsets:
#     182
#     11627
#     26812
#     43677
#     54730
#     65760
#     78145
#     89292
#     110882
#     123152
#     132877
# 
# Disc length: 2055 seconds
# 
# Revision: 1
# Processed by: cddbd v1.4b41PL1 Copyright (c) Steve Scherf et al.
# Submitted via: DiscPlay 4.0.4
# 
DISCID=9408050b
DTITLE=Alex Chilton - Like Flies On Sherbert
DYEAR=1900
DGENRE=
TTITLE0=Boogie Shoes
TTITLE1=My Rival
TTITLE2=Hey! Little Girl
TTITLE3=Hook or Crook
TTITLE4=I've Had It
TTITLE5=Rock Hard
TTITLE6=Girl After Girl
TTITLE7=Waltz Across Texas
TTITLE8=Alligator Man
TTITLE9=Like Flies on Sherbert
TTITLE10=No More The Moon Shine On Lorena
EXTD=
EXTT0=
EXTT1=
EXTT2=
EXTT3=
EXTT4=
EXTT5=
EXTT6=
EXTT7=
EXTT8=
EXTT9=
EXTT10=
PLAYORDER=
